<?xml version="1.0" encoding="UTF-8"?>
<svg xmlns="http://www.w3.org/2000/svg" xmlns:xlink="http://www.w3.org/1999/xlink" width="25px" height="23px" viewBox="0 0 24 23" version="1.1">
<g id="surface1">
<path style=" stroke:none;fill-rule:nonzero;fill:rgb(88.235294%,46.666667%,14.901961%);fill-opacity:1;" d="M 23.445312 0 L 13.144531 7.789062 L 15.058594 3.199219 Z M 23.445312 0 "/>
<path style=" stroke:none;fill-rule:nonzero;fill:rgb(88.627451%,46.27451%,14.509804%);fill-opacity:1;" d="M 0.582031 0.0078125 L 8.941406 3.199219 L 10.757812 7.851562 Z M 0.582031 0.0078125 "/>
<path style=" stroke:none;fill-rule:nonzero;fill:rgb(88.627451%,46.27451%,14.509804%);fill-opacity:1;" d="M 19.300781 16.566406 L 23.851562 16.652344 L 22.261719 22.179688 L 16.707031 20.613281 Z M 19.300781 16.566406 "/>
<path style=" stroke:none;fill-rule:nonzero;fill:rgb(88.627451%,46.27451%,14.509804%);fill-opacity:1;" d="M 4.699219 16.566406 L 7.285156 20.613281 L 1.738281 22.179688 L 0.160156 16.652344 Z M 4.699219 16.566406 "/>
<path style=" stroke:none;fill-rule:nonzero;fill:rgb(88.627451%,46.27451%,14.509804%);fill-opacity:1;" d="M 10.511719 6.664062 L 10.699219 12.808594 L 5.132812 12.546875 L 6.714844 10.105469 L 6.734375 10.082031 Z M 10.511719 6.664062 "/>
<path style=" stroke:none;fill-rule:nonzero;fill:rgb(88.627451%,46.27451%,14.509804%);fill-opacity:1;" d="M 13.429688 6.597656 L 17.265625 10.082031 L 17.285156 10.105469 L 18.867188 12.546875 L 13.304688 12.808594 Z M 13.429688 6.597656 "/>
<path style=" stroke:none;fill-rule:nonzero;fill:rgb(88.627451%,46.27451%,14.509804%);fill-opacity:1;" d="M 7.445312 16.582031 L 10.484375 19.003906 L 6.957031 20.746094 Z M 7.445312 16.582031 "/>
<path style=" stroke:none;fill-rule:nonzero;fill:rgb(88.627451%,46.27451%,14.509804%);fill-opacity:1;" d="M 16.554688 16.582031 L 17.035156 20.746094 L 13.515625 19.003906 Z M 16.554688 16.582031 "/>
<path style=" stroke:none;fill-rule:nonzero;fill:rgb(83.529412%,74.901961%,69.803922%);fill-opacity:1;" d="M 13.589844 18.777344 L 17.164062 20.542969 L 13.839844 22.160156 L 13.875 21.089844 Z M 13.589844 18.777344 "/>
<path style=" stroke:none;fill-rule:nonzero;fill:rgb(83.529412%,74.901961%,69.803922%);fill-opacity:1;" d="M 10.40625 18.777344 L 10.132812 21.074219 L 10.15625 22.15625 L 6.824219 20.542969 Z M 10.40625 18.777344 "/>
<path style=" stroke:none;fill-rule:nonzero;fill:rgb(13.72549%,20.392157%,27.843137%);fill-opacity:1;" d="M 9.375 13.609375 L 10.308594 15.613281 L 7.128906 14.660156 Z M 9.375 13.609375 "/>
<path style=" stroke:none;fill-rule:nonzero;fill:rgb(13.72549%,20.392157%,27.843137%);fill-opacity:1;" d="M 14.625 13.609375 L 16.878906 14.660156 L 13.691406 15.613281 Z M 14.625 13.609375 "/>
<path style=" stroke:none;fill-rule:nonzero;fill:rgb(80%,38.431373%,15.686275%);fill-opacity:1;" d="M 7.691406 16.5625 L 7.175781 20.878906 L 4.421875 16.65625 Z M 7.691406 16.5625 "/>
<path style=" stroke:none;fill-rule:nonzero;fill:rgb(80%,38.431373%,15.686275%);fill-opacity:1;" d="M 16.308594 16.5625 L 19.578125 16.65625 L 16.8125 20.878906 Z M 16.308594 16.5625 "/>
<path style=" stroke:none;fill-rule:nonzero;fill:rgb(80%,38.431373%,15.686275%);fill-opacity:1;" d="M 18.949219 12.304688 L 16.570312 14.78125 L 14.738281 13.925781 L 13.859375 15.8125 L 13.285156 12.566406 Z M 18.949219 12.304688 "/>
<path style=" stroke:none;fill-rule:nonzero;fill:rgb(80%,38.431373%,15.686275%);fill-opacity:1;" d="M 5.050781 12.304688 L 10.714844 12.566406 L 10.140625 15.8125 L 9.261719 13.925781 L 7.4375 14.78125 Z M 5.050781 12.304688 "/>
<path style=" stroke:none;fill-rule:nonzero;fill:rgb(88.627451%,45.882353%,14.509804%);fill-opacity:1;" d="M 4.890625 11.796875 L 7.582031 14.585938 L 7.675781 17.339844 Z M 4.890625 11.796875 "/>
<path style=" stroke:none;fill-rule:nonzero;fill:rgb(88.627451%,45.882353%,14.509804%);fill-opacity:1;" d="M 19.113281 11.789062 L 16.324219 17.347656 L 16.429688 14.585938 Z M 19.113281 11.789062 "/>
<path style=" stroke:none;fill-rule:nonzero;fill:rgb(88.627451%,45.882353%,14.509804%);fill-opacity:1;" d="M 10.585938 11.964844 L 10.691406 12.660156 L 10.960938 14.398438 L 10.789062 19.726562 L 9.976562 15.445312 L 9.976562 15.402344 Z M 10.585938 11.964844 "/>
<path style=" stroke:none;fill-rule:nonzero;fill:rgb(88.627451%,45.882353%,14.509804%);fill-opacity:1;" d="M 13.414062 11.957031 L 14.023438 15.402344 L 14.023438 15.445312 L 13.210938 19.738281 L 13.175781 18.664062 L 13.050781 14.367188 Z M 13.414062 11.957031 "/>
<path style=" stroke:none;fill-rule:nonzero;fill:rgb(96.078431%,51.764706%,12.156863%);fill-opacity:1;" d="M 16.667969 14.476562 L 16.578125 16.867188 L 13.738281 19.128906 L 13.164062 18.714844 L 13.808594 15.328125 Z M 16.667969 14.476562 "/>
<path style=" stroke:none;fill-rule:nonzero;fill:rgb(96.078431%,51.764706%,12.156863%);fill-opacity:1;" d="M 7.34375 14.476562 L 10.191406 15.328125 L 10.835938 18.714844 L 10.261719 19.128906 L 7.421875 16.867188 Z M 7.34375 14.476562 "/>
<path style=" stroke:none;fill-rule:nonzero;fill:rgb(75.294118%,67.45098%,61.568627%);fill-opacity:1;" d="M 6.28125 20.015625 L 9.914062 21.773438 L 9.898438 21.023438 L 10.203125 20.75 L 13.796875 20.75 L 14.109375 21.023438 L 14.089844 21.773438 L 17.695312 20.019531 L 15.941406 21.503906 L 13.816406 22.992188 L 10.171875 22.992188 L 8.050781 21.496094 Z M 6.28125 20.015625 "/>
<path style=" stroke:none;fill-rule:nonzero;fill:rgb(8.627451%,8.627451%,8.627451%);fill-opacity:1;" d="M 13.332031 18.542969 L 13.84375 18.914062 L 14.144531 21.367188 L 13.710938 20.992188 L 10.289062 20.992188 L 9.863281 21.375 L 10.15625 18.914062 L 10.667969 18.542969 Z M 13.332031 18.542969 "/>
<path style=" stroke:none;fill-rule:nonzero;fill:rgb(46.27451%,24.313725%,10.196078%);fill-opacity:1;" d="M 22.765625 0.214844 L 24 4.007812 L 23.226562 7.839844 L 23.777344 8.273438 L 23.035156 8.851562 L 23.59375 9.292969 L 22.851562 9.984375 L 23.308594 10.320312 L 22.101562 11.761719 L 17.152344 10.289062 L 17.109375 10.265625 L 13.546875 7.191406 Z M 22.765625 0.214844 "/>
<path style=" stroke:none;fill-rule:nonzero;fill:rgb(46.27451%,24.313725%,10.196078%);fill-opacity:1;" d="M 1.234375 0.214844 L 10.453125 7.191406 L 6.890625 10.265625 L 6.847656 10.289062 L 1.898438 11.761719 L 0.691406 10.320312 L 1.148438 9.984375 L 0.40625 9.292969 L 0.964844 8.855469 L 0.210938 8.273438 L 0.78125 7.839844 L 0 4.007812 Z M 1.234375 0.214844 "/>
<path style=" stroke:none;fill-rule:nonzero;fill:rgb(96.078431%,51.764706%,12.156863%);fill-opacity:1;" d="M 16.910156 9.964844 L 22.152344 11.527344 L 23.855469 16.890625 L 19.363281 16.890625 L 16.269531 16.929688 L 18.519531 12.445312 Z M 16.910156 9.964844 "/>
<path style=" stroke:none;fill-rule:nonzero;fill:rgb(96.078431%,51.764706%,12.156863%);fill-opacity:1;" d="M 7.089844 9.964844 L 5.480469 12.445312 L 7.730469 16.929688 L 4.636719 16.890625 L 0.152344 16.890625 L 1.847656 11.527344 Z M 7.089844 9.964844 "/>
<path style=" stroke:none;fill-rule:nonzero;fill:rgb(96.078431%,51.764706%,12.156863%);fill-opacity:1;" d="M 15.316406 3.171875 L 13.851562 7.222656 L 13.539062 12.6875 L 13.421875 14.402344 L 13.410156 18.78125 L 10.589844 18.78125 L 10.578125 14.410156 L 10.460938 12.6875 L 10.148438 7.222656 L 8.683594 3.171875 Z M 15.316406 3.171875 "/>
</g>
</svg>
