<svg width="34" height="34" viewBox="0 0 34 34" fill="none" xmlns="http://www.w3.org/2000/svg">
<circle cx="17" cy="17" r="17" fill="#F4F7FE"/>
<path d="M27 17C27 21.714 27 24.0711 25.5355 25.5355C24.0711 27 21.714 27 17 27C12.286 27 9.92893 27 8.46447 25.5355C7 24.0711 7 21.714 7 17C7 12.286 7 9.92893 8.46447 8.46447C9.92893 7 12.286 7 17 7" stroke="#4318FF" stroke-width="1.5" stroke-linecap="round"/>
<path d="M7 17.4999L8.75159 15.9673C9.66286 15.1699 11.0363 15.2156 11.8925 16.0719L16.1822 20.3616C16.8694 21.0488 17.9512 21.1425 18.7464 20.5837L19.0446 20.3741C20.1888 19.57 21.7369 19.6631 22.7765 20.5987L26 23.4999" stroke="#4318FF" stroke-width="1.5" stroke-linecap="round"/>
<path d="M20 10.5H23.5M23.5 10.5H27M23.5 10.5V14M23.5 10.5V7" stroke="#4318FF" stroke-width="1.5" stroke-linecap="round"/>
</svg>
