<svg width="56" height="56" viewBox="0 0 56 56" fill="none" xmlns="http://www.w3.org/2000/svg">
<circle cx="28" cy="28" r="28" fill="#F4F7FE"/>
<path d="M18.5 18C17.125 18 16 18.7359 16 19.6354C16 20.5348 17.125 21.2708 18.5 21.2708H38.5C39.875 21.2708 41 20.5348 41 19.6354C41 18.7359 39.875 18 38.5 18H18.5Z" fill="#4318FF"/>
<path d="M18.5 26.2708C17.125 26.2708 16 27.0067 16 27.9061C16 28.8056 17.125 29.5415 18.5 29.5415H38.5C39.875 29.5415 41 28.8056 41 27.9061C41 27.0067 39.875 26.2708 38.5 26.2708H18.5Z" fill="#4318FF"/>
<path d="M18.5 34.5415C17.125 34.5415 16 35.2774 16 36.1769C16 37.0763 17.125 37.8123 18.5 37.8123H38.5C39.875 37.8123 41 37.0763 41 36.1769C41 35.2774 39.875 34.5415 38.5 34.5415H18.5Z" fill="#4318FF"/>
</svg>
