<svg width="56" height="56" viewBox="0 0 56 56" fill="none" xmlns="http://www.w3.org/2000/svg">
<circle cx="28" cy="28" r="28" fill="#F4F7FE"/>
<path d="M27.4884 15.0116C27.4884 14.4529 27.9413 14 28.5 14C36.5081 14 43 20.4919 43 28.5C43 36.5081 36.5081 43 28.5 43C20.4919 43 14 36.5081 14 28.5C14 24.444 15.6667 20.7754 18.35 18.145C18.7489 17.7538 19.3894 17.7602 19.7805 18.1592C20.1717 18.5582 20.1653 19.1987 19.7663 19.5898C17.4552 21.8554 16.0233 25.0096 16.0233 28.5C16.0233 35.3907 21.6093 40.9767 28.5 40.9767C35.3907 40.9767 40.9767 35.3907 40.9767 28.5C40.9767 21.6093 35.3907 16.0233 28.5 16.0233C27.9413 16.0233 27.4884 15.5703 27.4884 15.0116Z" fill="#4318FF"/>
<path d="M27.4884 19.0581C27.4884 18.4994 27.9413 18.0465 28.5 18.0465C34.2733 18.0465 38.9535 22.7267 38.9535 28.5C38.9535 34.2733 34.2733 38.9535 28.5 38.9535C22.7267 38.9535 18.0465 34.2733 18.0465 28.5C18.0465 27.9413 18.4994 27.4884 19.0581 27.4884C19.6168 27.4884 20.0698 27.9413 20.0698 28.5C20.0698 33.1559 23.8441 36.9302 28.5 36.9302C33.1559 36.9302 36.9302 33.1559 36.9302 28.5C36.9302 23.8441 33.1559 20.0698 28.5 20.0698C27.9413 20.0698 27.4884 19.6168 27.4884 19.0581Z" fill="#4318FF"/>
<path d="M28.5 22.093C27.9413 22.093 27.4884 22.5459 27.4884 23.1047C27.4884 23.6634 27.9413 24.1163 28.5 24.1163C30.9211 24.1163 32.8837 26.0789 32.8837 28.5C32.8837 30.9211 30.9211 32.8837 28.5 32.8837C27.9413 32.8837 27.4884 33.3366 27.4884 33.8953C27.4884 34.4541 27.9413 34.907 28.5 34.907C32.0385 34.907 34.907 32.0385 34.907 28.5C34.907 24.9615 32.0385 22.093 28.5 22.093Z" fill="#4318FF"/>
</svg>
